<svg fill="#808CD6" viewBox="0 0 1536 400" xmlns="http://www.w3.org/2000/svg">
<path d="M40.0001 400C34.6508 400.01 29.3547 398.942 24.4283 396.857C19.6756 394.85 15.3577 391.939 11.7149 388.285C8.06088 384.642 5.14981 380.324 3.14315 375.57C1.05837 370.645 -0.0107166 365.349 8.09808e-05 360V40.0001C-0.00964478 34.6513 1.06006 29.3556 3.1451 24.43C5.15228 19.6773 8.0633 15.3597 11.7169 11.7171C15.3596 8.06367 19.6776 5.15242 24.4303 3.14508C29.3559 1.06025 34.6514 -0.0094417 40.0001 6.4626e-05H360C365.349 -0.00957884 370.644 1.06012 375.57 3.14508C380.323 5.15229 384.641 8.06355 388.283 11.7171C391.937 15.3598 394.848 19.6773 396.856 24.43C398.941 29.3557 400.01 34.6514 400 40.0001V360C400.01 365.348 398.94 370.643 396.855 375.568C394.848 380.322 391.937 384.64 388.282 388.283C384.64 391.937 380.322 394.848 375.569 396.855C370.644 398.94 365.348 400.01 360 400H40.0001ZM80.0001 315C105.41 336.262 151.924 350 198.5 350C237.043 350 268.74 341.067 290.163 324.167C309.405 308.989 320.002 287.385 320.002 263.334C320.002 236.224 308.578 216.187 285.083 202.08C264.521 189.736 238.293 183.68 212.929 177.83C194.065 173.475 176.25 169.365 163.2 162.999C156.226 159.599 151.13 155.814 147.621 151.435C145.771 149.147 144.321 146.562 143.333 143.789C142.316 140.827 141.809 137.714 141.833 134.583C141.772 129.193 143.034 123.871 145.509 119.083C148.262 113.999 152.237 109.679 157.074 106.512C163.268 102.51 170.129 99.6543 177.333 98.0801C187.1 95.9052 197.087 94.8722 207.093 95.002C220.986 95.0769 234.809 96.9854 248.202 100.678C262.794 104.633 276.823 110.426 289.955 117.917L307.555 75.835C282.139 59.659 244.741 50.001 207.519 50.001C168.976 50.001 137.354 58.953 116.071 75.887C96.6909 91.307 86.4459 112.47 86.4459 137.087C86.4459 164.504 97.8879 184.748 121.426 198.973C142.026 211.423 168.308 217.501 193.726 223.38C212.645 227.756 230.516 231.889 243.607 238.318C250.607 241.754 255.717 245.58 259.238 250.012C261.097 252.333 262.551 254.952 263.538 257.757C264.561 260.761 265.072 263.915 265.048 267.088C265.111 272.357 263.795 277.551 261.23 282.153C258.329 287.092 254.235 291.225 249.323 294.172C242.931 297.98 235.936 300.67 228.64 302.127C218.725 304.161 208.621 305.124 198.5 305C180 304.879 161.634 301.839 144.082 295.99C126.853 290.29 111.377 282.316 99.3243 272.916L80.0001 315ZM1222.07 200C1222.07 113.749 1288.69 50.0001 1379.03 50.0001C1469.38 50.0001 1536 113.333 1536 200C1536 286.667 1469.38 350 1379.03 350C1288.69 350 1222.07 286.249 1222.07 200H1222.07ZM1276.61 200C1276.61 259.583 1320.33 302.5 1379.03 302.5C1437.74 302.5 1481.46 259.584 1481.46 200C1481.46 140.416 1437.74 97.5001 1379.03 97.5001C1320.33 97.5001 1276.61 140.417 1276.61 200H1276.61ZM786.567 200C786.567 112.917 853.184 50.0001 942.698 50.0001C990.163 50.0001 1030.96 67.084 1058.03 98.751L1023.06 131.667C1001.82 108.751 975.59 97.502 945.197 97.502C884.827 97.502 841.111 140.002 841.111 200.002C841.111 260.002 884.827 302.502 945.197 302.502C975.59 302.502 1001.82 291.251 1023.06 267.919L1058.03 301.252C1030.97 332.919 990.164 350.003 942.282 350.003C853.185 350 786.568 287.084 786.568 200H786.567ZM436 200C436 113.749 502.617 50.0001 592.966 50.0001C683.315 50.0001 749.93 113.334 749.93 200C749.93 286.666 683.313 350 592.966 350C502.619 350 436 286.249 436 200ZM490.543 200C490.543 259.583 534.259 302.5 592.966 302.5C651.673 302.5 695.389 259.584 695.389 200C695.389 140.416 651.671 97.5001 592.966 97.5001C534.261 97.5001 490.542 140.417 490.542 200H490.543ZM1110.07 345.832V54.1661H1164.2V345.832H1110.07Z" />
</svg>
